<svg height="32" viewBox="0 0 32 32" width="32" xmlns="http://www.w3.org/2000/svg"><path d="m15 30h-12a3 3 0 0 1 -3-3v-26a1 1 0 0 1 .62-.92 1 1 0 0 1 1.09.21l1.58 1.59a1 1 0 0 0 1.42 0l1.58-1.59a1 1 0 0 1 1.42 0l1.58 1.59a1 1 0 0 0 1.42 0l1.58-1.59a1 1 0 0 1 1.42 0l1.58 1.59a1 1 0 0 0 1.42 0l1.58-1.59a1 1 0 0 1 1.42 0l1.58 1.59a1 1 0 0 0 1.42 0l1.58-1.59a1 1 0 0 1 1.09-.21 1 1 0 0 1 .62.92v14a1 1 0 0 1 -2 0v-11.59a3.07 3.07 0 0 1 -4.12-.12l-.88-.88-.88.88a3.06 3.06 0 0 1 -4.24 0l-.88-.88-.88.88a3.06 3.06 0 0 1 -4.24 0l-.88-.88-.88.88a3.07 3.07 0 0 1 -4.12.12v23.59a1 1 0 0 0 1 1h12a1 1 0 0 1 0 2z" fill="#A5D6A7"/><g fill="#C8C8C8"><path d="m15 25h-9a1 1 0 0 1 0-2h9a1 1 0 0 1 0 2z"/><path d="m15 21h-9a1 1 0 0 1 0-2h9a1 1 0 0 1 0 2z"/><path d="m17 17h-11a1 1 0 0 1 0-2h11a1 1 0 0 1 0 2z"/><path d="m20 13h-14a1 1 0 0 1 0-2h14a1 1 0 0 1 0 2z"/><path d="m20 9h-14a1 1 0 0 1 0-2h14a1 1 0 0 1 0 2z"/><path d="m23 19h4a0 0 0 0 1 0 0v3a1 1 0 0 1 -1 1h-2a1 1 0 0 1 -1-1v-3a0 0 0 0 1 0 0z"/></g><path d="m29 32h-8a3 3 0 0 1 -3-3v-8a3 3 0 0 1 3-3h8a3 3 0 0 1 3 3v8a3 3 0 0 1 -3 3zm-8-12a1 1 0 0 0 -1 1v8a1 1 0 0 0 1 1h8a1 1 0 0 0 1-1v-8a1 1 0 0 0 -1-1z" fill="#A5D6A7"/><path d="m24 28h-1a1 1 0 0 1 0-2h1a1 1 0 0 1 0 2z" fill="#A5D6A7"/></svg>